<svg data-v-423bf9ae="" xmlns="http://www.w3.org/2000/svg" viewBox="0 0 395.16734843351406 60" class="font"><!----><!----><!----><g data-v-423bf9ae="" id="5ccd1ed7-263d-4d9c-b921-7fa59d83693a" fill="black" transform="matrix(4.8979591836734695,0,0,4.8979591836734695,-1.5673455541231363,-2.7428566180929863)"><path d="M3.96 5.21C2.07 5.21 0.83 6.05 0.83 7.52C0.83 8.60 1.55 9.10 2.28 9.48C3.09 9.90 3.88 9.94 3.88 10.46C3.88 10.93 3.46 10.98 3.11 10.98C2.31 10.98 1.33 10.15 1.33 10.15L0.32 11.84C0.32 11.84 1.36 12.81 3.09 12.81C4.56 12.81 6.50 12.47 6.50 10.36C6.50 8.89 5.26 8.36 4.31 8.06C3.70 7.87 3.19 7.76 3.19 7.38C3.19 7.04 3.42 6.94 3.96 6.94C4.72 6.94 5.56 7.39 5.56 7.39L6.37 5.77C6.37 5.77 5.35 5.21 3.96 5.21ZM9.00 0.98C8.19 0.98 7.53 1.64 7.53 2.45C7.53 3.26 8.19 3.92 9.00 3.92C9.81 3.92 10.47 3.26 10.47 2.45C10.47 1.64 9.81 0.98 9.00 0.98ZM7.73 5.42L10.21 5.42L10.21 12.60L7.73 12.60ZM15.78 7.24C16.52 7.24 16.98 7.57 16.98 7.57L17.82 5.88C17.82 5.88 17.01 5.21 15.41 5.21C13.33 5.21 11.44 6.92 11.44 9.03C11.44 11.13 13.34 12.81 15.41 12.81C17.01 12.81 17.82 12.17 17.82 12.17L16.98 10.44C16.98 10.44 16.52 10.78 15.78 10.78C14.84 10.78 14.07 10.00 14.07 9.00C14.07 8.02 14.84 7.24 15.78 7.24ZM27.03 5.42L23.81 5.42L21.31 7.92L21.31 0.56L18.83 0.56L18.83 12.60L21.31 12.60L21.31 9.73L24.18 12.60L27.37 12.60L23.62 8.85ZM27.01 9.02C27.01 11.23 28.74 12.81 31.33 12.81C33.81 12.81 35.62 11.23 35.62 9.02C35.62 6.78 33.71 5.21 31.33 5.21C28.91 5.21 27.01 6.78 27.01 9.02ZM29.64 9.02C29.64 8.02 30.38 7.32 31.32 7.32C32.24 7.32 32.98 8.02 32.98 9.02C32.98 10.00 32.28 10.70 31.32 10.70C30.31 10.70 29.64 10.00 29.64 9.02ZM36.75 12.60L39.23 12.60L39.23 8.40C39.23 7.83 39.55 7.20 40.38 7.20C41.26 7.20 41.64 7.83 41.64 8.54L41.64 12.60L44.11 12.60L44.11 8.32C44.14 7.77 44.48 7.20 45.26 7.20C46.14 7.20 46.52 7.83 46.52 8.54L46.52 12.60L49 12.60L49 7.87C49 5.87 47.52 5.21 46.20 5.21C45.42 5.21 44.58 5.61 43.82 6.52C43.32 5.56 42.27 5.21 41.31 5.21C40.53 5.21 39.82 5.61 39.26 6.17L39.23 6.17L39.23 5.42L36.75 5.42ZM50.02 9.02C50.02 11.23 51.76 12.81 54.35 12.81C56.83 12.81 58.63 11.23 58.63 9.02C58.63 6.78 56.73 5.21 54.35 5.21C51.93 5.21 50.02 6.78 50.02 9.02ZM52.65 9.02C52.65 8.02 53.40 7.32 54.33 7.32C55.26 7.32 56 8.02 56 9.02C56 10.00 55.30 10.70 54.33 10.70C53.33 10.70 52.65 10.00 52.65 9.02ZM59.28 9.02C59.28 11.12 60.75 12.81 62.85 12.81C63.83 12.81 64.67 12.38 65.20 11.79L65.23 11.79L65.23 12.60L67.68 12.60L67.68 0.56L65.20 0.56L65.20 6.10C64.61 5.53 63.81 5.21 62.85 5.21C60.75 5.21 59.28 6.92 59.28 9.02ZM61.91 9.02C61.91 8.02 62.65 7.32 63.59 7.32C64.51 7.32 65.25 8.02 65.25 9.02C65.25 10.00 64.55 10.70 63.59 10.70C62.58 10.70 61.91 10.00 61.91 9.02ZM76.62 9.35C76.64 9.27 76.64 9.11 76.64 9.02C76.64 6.50 74.97 5.21 72.79 5.21C70.62 5.21 68.84 6.92 68.84 9.02C68.84 11.10 70.62 12.81 72.79 12.81C74.38 12.81 75.70 12.29 76.51 10.93L74.72 10.04C74.12 10.68 73.77 10.84 72.97 10.84C72.34 10.84 71.41 10.46 71.41 9.35ZM71.48 7.98C71.53 7.32 72.00 6.82 72.86 6.82C73.58 6.82 74.10 7.22 74.21 7.98ZM79.39 9.60C78.51 9.60 77.80 10.32 77.80 11.21C77.80 12.10 78.51 12.81 79.39 12.81C80.29 12.81 81.00 12.10 81.00 11.21C81.00 10.32 80.29 9.60 79.39 9.60Z"></path></g><!----><!----></svg>